<mxfile host="app.diagrams.net" agent="Mozilla/5.0 (Macintosh; Intel Mac OS X 10.15; rv:140.0) Gecko/20100101 Firefox/140.0" version="28.0.6">
  <diagram name="Page-1" id="Aj2ej758T4eL25GV63W_">
    <mxGraphModel dx="1076" dy="1996" grid="1" gridSize="10" guides="1" tooltips="1" connect="1" arrows="1" fold="1" page="1" pageScale="1" pageWidth="827" pageHeight="1169" background="light-dark(#FFFFFF,#333333)" math="0" shadow="0">
      <root>
        <mxCell id="0" />
        <mxCell id="1" parent="0" />
        <mxCell id="QaEh7f_pTU_rfghjkfNo-1" value="" style="rounded=0;whiteSpace=wrap;html=1;fillColor=#ffe6cc;strokeColor=#d79b00;" parent="1" vertex="1">
          <mxGeometry x="80" y="200" width="560" height="220" as="geometry" />
        </mxCell>
        <mxCell id="QaEh7f_pTU_rfghjkfNo-2" value="Local machine" style="text;html=1;align=center;verticalAlign=middle;whiteSpace=wrap;rounded=0;" parent="1" vertex="1">
          <mxGeometry x="80" y="200" width="90" height="30" as="geometry" />
        </mxCell>
        <mxCell id="QaEh7f_pTU_rfghjkfNo-3" value="" style="rounded=0;whiteSpace=wrap;html=1;" parent="1" vertex="1">
          <mxGeometry x="90" y="240" width="190" height="170" as="geometry" />
        </mxCell>
        <mxCell id="QaEh7f_pTU_rfghjkfNo-4" value="LLM client" style="text;html=1;align=center;verticalAlign=middle;whiteSpace=wrap;rounded=0;" parent="1" vertex="1">
          <mxGeometry x="90" y="240" width="60" height="30" as="geometry" />
        </mxCell>
        <mxCell id="QaEh7f_pTU_rfghjkfNo-5" value="MCP client" style="rounded=0;whiteSpace=wrap;html=1;dashed=1;" parent="1" vertex="1">
          <mxGeometry x="150" y="340" width="120" height="60" as="geometry" />
        </mxCell>
        <mxCell id="QaEh7f_pTU_rfghjkfNo-6" value="MCP Server" style="rounded=0;whiteSpace=wrap;html=1;fillColor=#f8cecc;strokeColor=#b85450;" parent="1" vertex="1">
          <mxGeometry x="380" y="340" width="50" height="60" as="geometry" />
        </mxCell>
        <mxCell id="QaEh7f_pTU_rfghjkfNo-7" value="" style="ellipse;shape=cloud;whiteSpace=wrap;html=1;fillColor=#dae8fc;strokeColor=#6c8ebf;" parent="1" vertex="1">
          <mxGeometry x="10" y="-10" width="660" height="190" as="geometry" />
        </mxCell>
        <mxCell id="QaEh7f_pTU_rfghjkfNo-28" style="edgeStyle=orthogonalEdgeStyle;rounded=0;orthogonalLoop=1;jettySize=auto;html=1;entryX=0.5;entryY=0;entryDx=0;entryDy=0;endArrow=none;endFill=0;curved=1;" parent="1" source="QaEh7f_pTU_rfghjkfNo-8" target="QaEh7f_pTU_rfghjkfNo-3" edge="1">
          <mxGeometry relative="1" as="geometry" />
        </mxCell>
        <mxCell id="QaEh7f_pTU_rfghjkfNo-8" value="&lt;div&gt;LLM&lt;/div&gt;" style="rounded=0;whiteSpace=wrap;html=1;" parent="1" vertex="1">
          <mxGeometry x="130" y="62.5" width="80" height="45" as="geometry" />
        </mxCell>
        <mxCell id="QaEh7f_pTU_rfghjkfNo-9" value="&lt;div&gt;Service 1&lt;/div&gt;" style="rounded=0;whiteSpace=wrap;html=1;" parent="1" vertex="1">
          <mxGeometry x="530" y="360" width="80" height="40" as="geometry" />
        </mxCell>
        <mxCell id="QaEh7f_pTU_rfghjkfNo-23" style="edgeStyle=orthogonalEdgeStyle;rounded=0;orthogonalLoop=1;jettySize=auto;html=1;entryX=1;entryY=0.5;entryDx=0;entryDy=0;endArrow=none;endFill=0;curved=1;" parent="1" source="QaEh7f_pTU_rfghjkfNo-10" target="QaEh7f_pTU_rfghjkfNo-13" edge="1">
          <mxGeometry relative="1" as="geometry" />
        </mxCell>
        <mxCell id="QaEh7f_pTU_rfghjkfNo-10" value="&lt;div&gt;Service 2&lt;/div&gt;" style="rounded=0;whiteSpace=wrap;html=1;" parent="1" vertex="1">
          <mxGeometry x="490" y="100" width="80" height="40" as="geometry" />
        </mxCell>
        <mxCell id="QaEh7f_pTU_rfghjkfNo-29" style="edgeStyle=orthogonalEdgeStyle;rounded=0;orthogonalLoop=1;jettySize=auto;html=1;curved=1;endArrow=none;endFill=0;" parent="1" source="QaEh7f_pTU_rfghjkfNo-11" target="QaEh7f_pTU_rfghjkfNo-14" edge="1">
          <mxGeometry relative="1" as="geometry" />
        </mxCell>
        <mxCell id="QaEh7f_pTU_rfghjkfNo-11" value="&lt;div&gt;Service 3&lt;/div&gt;" style="rounded=0;whiteSpace=wrap;html=1;" parent="1" vertex="1">
          <mxGeometry x="430" y="40" width="80" height="40" as="geometry" />
        </mxCell>
        <mxCell id="QaEh7f_pTU_rfghjkfNo-24" style="edgeStyle=orthogonalEdgeStyle;rounded=0;orthogonalLoop=1;jettySize=auto;html=1;entryX=1;entryY=0.25;entryDx=0;entryDy=0;endArrow=none;endFill=0;curved=1;" parent="1" source="QaEh7f_pTU_rfghjkfNo-13" target="QaEh7f_pTU_rfghjkfNo-5" edge="1">
          <mxGeometry relative="1" as="geometry" />
        </mxCell>
        <mxCell id="QaEh7f_pTU_rfghjkfNo-25" value="&lt;div&gt;stdio /&amp;nbsp;&lt;/div&gt;Streamable HTTP" style="edgeLabel;html=1;align=center;verticalAlign=middle;resizable=0;points=[];" parent="QaEh7f_pTU_rfghjkfNo-24" vertex="1" connectable="0">
          <mxGeometry x="-0.24" y="1" relative="1" as="geometry">
            <mxPoint as="offset" />
          </mxGeometry>
        </mxCell>
        <mxCell id="QaEh7f_pTU_rfghjkfNo-13" value="MCP Server" style="rounded=0;whiteSpace=wrap;html=1;fillColor=#f8cecc;strokeColor=#b85450;" parent="1" vertex="1">
          <mxGeometry x="440" y="260" width="50" height="60" as="geometry" />
        </mxCell>
        <mxCell id="QaEh7f_pTU_rfghjkfNo-26" style="edgeStyle=orthogonalEdgeStyle;rounded=0;orthogonalLoop=1;jettySize=auto;html=1;entryX=0.75;entryY=0;entryDx=0;entryDy=0;exitX=0.5;exitY=1;exitDx=0;exitDy=0;endArrow=none;endFill=0;curved=1;" parent="1" source="QaEh7f_pTU_rfghjkfNo-14" target="QaEh7f_pTU_rfghjkfNo-5" edge="1">
          <mxGeometry relative="1" as="geometry" />
        </mxCell>
        <mxCell id="QaEh7f_pTU_rfghjkfNo-27" value="Streamable HTTP" style="edgeLabel;html=1;align=center;verticalAlign=middle;resizable=0;points=[];" parent="QaEh7f_pTU_rfghjkfNo-26" vertex="1" connectable="0">
          <mxGeometry x="0.0733" y="3" relative="1" as="geometry">
            <mxPoint x="61" y="-23" as="offset" />
          </mxGeometry>
        </mxCell>
        <mxCell id="QaEh7f_pTU_rfghjkfNo-14" value="MCP Server" style="rounded=0;whiteSpace=wrap;html=1;fillColor=#f8cecc;strokeColor=#b85450;" parent="1" vertex="1">
          <mxGeometry x="335" y="100" width="50" height="60" as="geometry" />
        </mxCell>
        <mxCell id="QaEh7f_pTU_rfghjkfNo-18" value="" style="endArrow=none;html=1;rounded=0;exitX=1;exitY=0.75;exitDx=0;exitDy=0;entryX=0;entryY=0.75;entryDx=0;entryDy=0;" parent="1" source="QaEh7f_pTU_rfghjkfNo-5" target="QaEh7f_pTU_rfghjkfNo-6" edge="1">
          <mxGeometry width="50" height="50" relative="1" as="geometry">
            <mxPoint x="390" y="450" as="sourcePoint" />
            <mxPoint x="440" y="400" as="targetPoint" />
          </mxGeometry>
        </mxCell>
        <mxCell id="QaEh7f_pTU_rfghjkfNo-19" value="stdio /&amp;nbsp;&lt;br&gt;Streamable HTTP" style="edgeLabel;html=1;align=center;verticalAlign=middle;resizable=0;points=[];" parent="QaEh7f_pTU_rfghjkfNo-18" vertex="1" connectable="0">
          <mxGeometry x="-0.1091" y="-2" relative="1" as="geometry">
            <mxPoint x="11" y="13" as="offset" />
          </mxGeometry>
        </mxCell>
        <mxCell id="QaEh7f_pTU_rfghjkfNo-22" value="" style="endArrow=none;html=1;rounded=0;entryX=0;entryY=0.5;entryDx=0;entryDy=0;exitX=0.98;exitY=0.65;exitDx=0;exitDy=0;exitPerimeter=0;" parent="1" source="QaEh7f_pTU_rfghjkfNo-6" target="QaEh7f_pTU_rfghjkfNo-9" edge="1">
          <mxGeometry width="50" height="50" relative="1" as="geometry">
            <mxPoint x="430" y="450" as="sourcePoint" />
            <mxPoint x="440" y="400" as="targetPoint" />
          </mxGeometry>
        </mxCell>
      </root>
    </mxGraphModel>
  </diagram>
</mxfile>
